<svg xmlns="http://www.w3.org/2000/svg" enable-background="new 0 0 1080 1080" viewBox="0 0 1080 1080">
	<path fill="#af5f1e" d="M861.2,369.8v98.1H221.3c-44.9,0-81.3-36.4-81.3-81.2c0-3.9,0.3-7.7,0.8-11.3c2.5-17.9,10.8-34,23-46.2
	c14.7-14.7,35-23.8,57.5-23.8h575.4C832.4,305.3,861.2,334.2,861.2,369.8z"/><path fill="#18773e" d="M535.5,697.7H300.6c-24.6,0-44.6-20-44.6-44.6V185.5c0-24.6,20-44.6,44.6-44.6h234.9
		c24.7,0,44.6,20,44.6,44.6v467.6C580.1,677.8,560.2,697.7,535.5,697.7z"/><path fill="#38b44a" d="M295.2,234c29.7,0,53.9-24.3,53.9-53.9H487c0,29.8,24.1,53.9,53.9,53.9v370.5c-29.8,0-53.9,24.1-53.9,53.9
		H349.2c0-29.8-24.1-53.9-53.9-53.9V234z"/><circle cx="418.1" cy="238.1" r="25.5" fill="#219c4a" transform="rotate(-80.781 418.073 238.108)"/><circle cx="418.1" cy="600.5" r="25.5" fill="#219c4a" transform="rotate(-80.781 418.078 600.498)"/><path fill="#219c4a" d="M315.4,419.3c0-56.6,46-102.6,102.6-102.6c56.7,0,102.8,46,102.8,102.6S474.6,521.9,418,521.9
			C361.4,521.9,315.4,475.9,315.4,419.3z"/><path fill="#38b44a" d="M351.8,419.3c0-36.5,29.7-66.2,66.2-66.2c36.6,0,66.3,29.7,66.3,66.2c0,36.5-29.8,66.2-66.3,66.2
			C381.5,485.5,351.8,455.8,351.8,419.3z"/><path fill="#13703c" d="M388.8,445.5c-3.2-2.1-5.8-5.2-7.7-9.1c-1.9-3.9-3-8.5-3.4-13.7l-8,0c-1,0-1.8-0.3-2.4-1
			c-0.6-0.6-1-1.5-1-2.5c0-1,0.3-1.8,0.9-2.4c0.6-0.6,1.4-1,2.5-1l8,0c0.5-8.1,2.3-15.7,5.2-22.8c0.4-0.9,1-1.7,1.9-2.3
			c0.9-0.6,1.8-0.9,2.8-0.9c1.3,0,2.4,0.4,3.3,1.3c0.9,0.9,1.4,2,1.4,3.3c0,0.8-0.1,1.5-0.4,2.1c-2.7,6.1-4.2,12.5-4.5,19.2
			l25.9-0.1c1.3-5.1,2.8-9.4,4.4-12.9s3.8-6.4,6.7-8.8c2.9-2.3,6.5-3.5,11-3.5c3.9,0,7.5,0.9,10.8,2.9c3.3,1.9,6.1,4.8,8.2,8.5
			c2.2,3.8,3.5,8.3,4,13.7l7.9,0c1,0,1.8,0.3,2.5,1c0.7,0.6,1,1.4,1,2.4c0,1-0.3,1.8-1,2.5c-0.7,0.7-1.5,1-2.5,1l-7.8,0
			c-0.3,7.4-1.5,13.9-3.7,19.6c-0.7,2.1-2.2,3.2-4.5,3.2c-1.2,0-2.3-0.4-3.3-1.2s-1.5-1.9-1.5-3.3c0-0.4,0.1-1.1,0.4-1.8
			c1.8-5.1,2.8-10.6,3-16.5l-26.8,0.1c-1.3,5.4-2.6,9.9-4.1,13.5c-1.5,3.6-3.7,6.6-6.7,9c-3,2.4-6.9,3.6-11.8,3.6
			C395.7,448.7,392.1,447.6,388.8,445.5z M428.5,404.6c-1.8,2.5-3.3,6.2-4.6,11.1l24.8-0.1c-0.6-4.5-2-8.1-4.1-10.8
			c-2.1-2.7-5-4-8.4-4C432.9,400.8,430.3,402.1,428.5,404.6z M400.3,438.6c2.9,0,5.2-1.3,6.8-4c1.6-2.7,3.1-6.6,4.5-11.9
			l-24.2,0.1C388.2,433.3,392.5,438.6,400.3,438.6z"/><path fill="#38b44a" d="M502.3 430.8c-6.4 0-11.5-5.1-11.5-11.5 0-6.4 5.1-11.5 11.5-11.5 6.4 0 11.5 5.1 11.5 11.5C513.8 425.7 508.6 430.8 502.3 430.8zM333.9 430.8c-6.4 0-11.5-5.1-11.5-11.5 0-6.4 5.1-11.5 11.5-11.5 6.4 0 11.5 5.1 11.5 11.5C345.4 425.7 340.3 430.8 333.9 430.8zM469.4 487c-4.5-4.5-4.5-11.8 0-16.3 4.5-4.5 11.8-4.5 16.3 0 4.5 4.5 4.5 11.8 0 16.3C481.2 491.5 474 491.5 469.4 487zM350.4 367.9c-4.5-4.5-4.5-11.8 0-16.3 4.5-4.5 11.8-4.5 16.3 0 4.5 4.5 4.5 11.8 0 16.3C362.2 372.4 354.9 372.4 350.4 367.9zM406.5 503.5c0-6.4 5.1-11.5 11.5-11.5 6.4 0 11.5 5.1 11.5 11.5 0 6.4-5.1 11.5-11.5 11.5C411.7 515 406.5 509.9 406.5 503.5zM406.5 335.1c0-6.4 5.1-11.5 11.5-11.5 6.4 0 11.5 5.1 11.5 11.5 0 6.4-5.1 11.5-11.5 11.5C411.7 346.6 406.5 341.5 406.5 335.1zM350.4 470.7c4.5-4.5 11.8-4.5 16.3 0 4.5 4.5 4.5 11.8 0 16.3-4.5 4.5-11.8 4.5-16.3 0C345.9 482.5 345.9 475.2 350.4 470.7zM469.4 351.6c4.5-4.5 11.8-4.5 16.3 0 4.5 4.5 4.5 11.8 0 16.3-4.5 4.5-11.8 4.5-16.3 0C464.9 363.4 464.9 356.1 469.4 351.6z"/><path fill="#18773e" d="M700.6,794.9H465.7c-24.6,0-44.6-20-44.6-44.6V282.7c0-24.6,20-44.6,44.6-44.6h234.9
		c24.7,0,44.6,20,44.6,44.6v467.6C745.2,775,725.3,794.9,700.6,794.9z"/><path fill="#38b44a" d="M460.3,331.2c29.7,0,53.9-24.3,53.9-53.9h137.8c0,29.8,24.1,53.9,53.9,53.9v370.5
		c-29.8,0-53.9,24.1-53.9,53.9H514.2c0-29.8-24.1-53.9-53.9-53.9V331.2z"/><circle cx="583.1" cy="335.3" r="25.5" fill="#219c4a" transform="rotate(-80.781 583.156 335.303)"/><circle cx="583.1" cy="697.7" r="25.5" fill="#219c4a" transform="rotate(-80.781 583.162 697.694)"/><path fill="#219c4a" d="M480.5,516.5c0-56.6,46-102.6,102.6-102.6c56.7,0,102.8,46,102.8,102.6c0,56.6-46.1,102.6-102.8,102.6
			C526.5,619.1,480.5,573.1,480.5,516.5z"/><path fill="#38b44a" d="M516.9,516.5c0-36.5,29.7-66.2,66.2-66.2c36.6,0,66.3,29.7,66.3,66.2c0,36.5-29.8,66.2-66.3,66.2
			C546.6,582.7,516.9,553,516.9,516.5z"/><path fill="#13703c" d="M553.9,542.7c-3.2-2.1-5.8-5.2-7.7-9.1c-1.9-3.9-3-8.5-3.4-13.7l-8,0c-1,0-1.8-0.3-2.4-1
			c-0.6-0.6-1-1.5-1-2.5c0-1,0.3-1.8,0.9-2.4c0.6-0.6,1.4-1,2.5-1l8,0c0.5-8.1,2.3-15.7,5.2-22.8c0.4-0.9,1-1.7,1.9-2.3
			c0.9-0.6,1.8-0.9,2.8-0.9c1.3,0,2.4,0.4,3.3,1.3c0.9,0.9,1.4,2,1.4,3.3c0,0.8-0.1,1.5-0.4,2.1c-2.7,6.1-4.2,12.5-4.5,19.2
			l25.9-0.1c1.3-5.1,2.8-9.4,4.4-12.9c1.6-3.5,3.8-6.4,6.7-8.8c2.9-2.3,6.5-3.5,11-3.5c3.9,0,7.5,0.9,10.8,2.9
			c3.3,1.9,6.1,4.8,8.2,8.5c2.2,3.8,3.5,8.3,4,13.7l7.9,0c1,0,1.8,0.3,2.5,1c0.7,0.6,1,1.4,1,2.4s-0.3,1.8-1,2.5
			c-0.7,0.7-1.5,1-2.5,1l-7.8,0c-0.3,7.4-1.5,13.9-3.7,19.6c-0.7,2.1-2.2,3.2-4.5,3.2c-1.2,0-2.3-0.4-3.3-1.2
			c-1-0.8-1.5-1.9-1.5-3.3c0-0.4,0.1-1.1,0.4-1.8c1.8-5.1,2.8-10.6,3-16.5l-26.8,0.1c-1.3,5.4-2.6,9.9-4.1,13.5
			c-1.5,3.6-3.7,6.6-6.7,9c-3,2.4-6.9,3.6-11.8,3.6C560.8,545.9,557.1,544.8,553.9,542.7z M593.6,501.8c-1.8,2.5-3.3,6.2-4.6,11.1
			l24.8-0.1c-0.6-4.5-2-8.1-4.1-10.8c-2.1-2.7-5-4-8.4-4C597.9,498,595.4,499.3,593.6,501.8z M565.4,535.7c2.9,0,5.2-1.3,6.8-4
			c1.6-2.7,3.1-6.6,4.5-11.9l-24.2,0.1C553.3,530.5,557.6,535.8,565.4,535.7z"/><path fill="#38b44a" d="M667.3 528c-6.4 0-11.5-5.1-11.5-11.5 0-6.4 5.1-11.5 11.5-11.5 6.4 0 11.5 5.1 11.5 11.5C678.9 522.9 673.7 528 667.3 528zM499 528c-6.4 0-11.5-5.1-11.5-11.5 0-6.4 5.1-11.5 11.5-11.5 6.4 0 11.5 5.1 11.5 11.5C510.5 522.9 505.3 528 499 528zM634.5 584.2c-4.5-4.5-4.5-11.8 0-16.3 4.5-4.5 11.8-4.5 16.3 0 4.5 4.5 4.5 11.8 0 16.3C646.3 588.7 639 588.7 634.5 584.2zM515.5 465.1c-4.5-4.5-4.5-11.8 0-16.3 4.5-4.5 11.8-4.5 16.3 0 4.5 4.5 4.5 11.8 0 16.3C527.3 469.6 520 469.6 515.5 465.1zM571.6 600.7c0-6.4 5.1-11.5 11.5-11.5 6.4 0 11.5 5.1 11.5 11.5 0 6.4-5.1 11.5-11.5 11.5C576.8 612.2 571.6 607.1 571.6 600.7zM571.6 432.3c0-6.4 5.1-11.5 11.5-11.5 6.4 0 11.5 5.1 11.5 11.5 0 6.4-5.1 11.5-11.5 11.5C576.8 443.8 571.6 438.7 571.6 432.3zM515.5 567.9c4.5-4.5 11.8-4.5 16.3 0 4.5 4.5 4.5 11.8 0 16.3-4.5 4.5-11.8 4.5-16.3 0C510.9 579.7 510.9 572.4 515.5 567.9zM634.5 448.8c4.5-4.5 11.8-4.5 16.3 0 4.5 4.5 4.5 11.8 0 16.3-4.5 4.5-11.8 4.5-16.3 0C630 460.6 630 453.3 634.5 448.8z"/><g><path fill="#18773e" d="M140.8,375.3c-0.5,3.7-0.8,7.5-0.8,11.3v-11.3H140.8z"/></g><g><path fill="#cb7729" d="M914.6,532.4v342.3c0,35.6-28.9,64.5-64.5,64.5H221.3c-44.9,0-81.3-36.4-81.3-81.3V386.7
	c0,44.9,36.4,81.2,81.3,81.2h628.8C885.7,467.9,914.6,496.8,914.6,532.4z"/></g><g><path fill="none" stroke="#af5f1e" stroke-linecap="round" stroke-linejoin="round" d="M176.3,496.8v-1.5c0.5,0.2,0.9,0.4,1.4,0.6"/><path fill="none" stroke="#af5f1e" stroke-dasharray="3.002 3.002" stroke-linecap="round" stroke-linejoin="round" d="M180.5,496.9c12.7,4.7,26.5,7.3,40.8,7.3h628.8c15.5,0,28.2,12.6,28.2,28.2v342.3
		c0,15.5-12.6,28.2-28.2,28.2H221.3c-24.8,0-45-20.2-45-45V498.3"/></g><path fill="#8e4b19" d="M940,648v106c0,16.4-13.4,29.6-29.7,29.6H807c-22.9,0-43.5-9.2-58.5-24.2c-15.1-14.9-24.2-35.5-24.2-58.5 c0-45.6,37-82.6,82.7-82.6h103.3C926.6,618.4,940,631.6,940,648z"/><path fill="#121416" d="M819.5,701.1c0,14.4-11.7,26.1-26.1,26.1c-14.5,0-26.1-11.7-26.1-26.1c0-14.5,11.6-26.3,26.1-26.3 C807.8,674.8,819.5,686.6,819.5,701.1z"/>
</svg>