<svg xmlns="http://www.w3.org/2000/svg" viewBox="0 0 64 64"><path fill="#4D4D4D" d="M22 52H8a1 1 0 0 0-1 1c0 4.411 3.589 8 8 8s8-3.589 8-8a1 1 0 0 0-1-1z"/><path fill="#FFF" d="M18.889 53h-7.778a.556.556 0 0 0-.556.556C10.556 56.006 12.549 58 15 58s4.444-1.994 4.444-4.444a.555.555 0 0 0-.555-.556z"/><path fill="#4D4D4D" d="M57 52H43a1 1 0 0 0-1 1c0 4.411 3.589 8 8 8s8-3.589 8-8a1 1 0 0 0-1-1z"/><path fill="#FFF" d="M53.889 53h-7.778a.556.556 0 0 0-.556.556C45.556 56.006 47.549 58 50 58s4.444-1.994 4.444-4.444a.555.555 0 0 0-.555-.556z"/><path fill="#D43239" d="M56.435 52.1l-14.486-7a1.008 1.008 0 0 0-.435-.1H33c-.551 0-1-.449-1-1V34a1 1 0 0 0-1-1H11a1 1 0 0 0-.938.654l-7 19A.999.999 0 0 0 4 54h52a1 1 0 0 0 .435-1.9z"/><path fill="#AC282E" d="M10.812 33.029a.99.99 0 0 0-.75.625l-3.487 9.464C3.78 45.505 2 49.046 2 53a1 1 0 0 0 1 1H33.676c-11.198-1.736-20.198-10.109-22.864-20.971z"/><path fill="#D43239" d="M14 4H3a1.001 1.001 0 0 0-.8 1.6L4.75 9 2.2 12.4A.999.999 0 0 0 3 14h11a1 1 0 0 0 1-1V5a1 1 0 0 0-1-1z"/><path fill="#FF8000" d="M22 23H12a1 1 0 0 0-1 1v6a1 1 0 0 0 1 1h10a1 1 0 0 0 1-1v-6a1 1 0 0 0-1-1z"/><path fill="#666" d="M44 19h-5a1 1 0 0 1 0-2h5a1 1 0 0 1 0 2z"/><path fill="#D43239" d="M51.923 25.816a1 1 0 0 0-.737-.785l-3.94-1A1 1 0 0 0 46 25v17.421a1 1 0 0 0 .948.999l7.086.368a.995.995 0 0 0 .804-.341.996.996 0 0 0 .23-.842l-3.145-16.789z"/><path fill="#4D4D4D" d="M56 13h-6.06A6.948 6.948 0 0043 19.94v.12A6.948 6.948 0 0049.94 27H56a1 1 0 001-1V14a1 1 0 00-1-1zM33 29H11c-1.654 0-3 1.346-3 3v2a1 1 0 001 1h24a1 1 0 001-1v-4a1 1 0 00-1-1z"/><path fill="#FFF" d="M47 47h6v2h-6z"/><path fill="#4D4D4D" d="M13 4h2v16h-2z"/><path fill="#E6E6E6" d="M56 13h-2v14h2a1 1 0 0 0 1-1V14a1 1 0 0 0-1-1z"/><path fill="#E57300" d="M22 23H12a1 1 0 0 0-1 1v2h12v-2a1 1 0 0 0-1-1z"/><path fill="#FF8000" d="M23 19H11a1 1 0 0 0-1 1v4a1 1 0 0 0 1 1h12a1 1 0 0 0 1-1v-4a1 1 0 0 0-1-1z"/><g fill="#BF2D33"><path d="M50 41c-6.617 0-12 5.383-12 12a1 1 0 001 1h22a1 1 0 001-1c0-6.617-5.383-12-12-12zM15 40C7.832 40 2 45.832 2 53a1 1 0 001 1h24a1 1 0 001-1c0-7.168-5.832-13-13-13z"/></g><path fill="#FFF" d="M12 44h6v2h-6zM11 48h8v2h-8z"/></svg>