<svg xmlns="http://www.w3.org/2000/svg" width="100" height="100" viewBox="0 0 100 100"><g fill="none" fill-rule="evenodd" transform="translate(-900 -450)"><g transform="translate(908 475)"><path fill="#7A5246" d="M59.9380418,36.6692934 C59.8444708,37.2299656 60.6561312,41.0555184 56.9001336,44.5903741 C52.8652487,48.3876971 46.657689,49.7323079 41.6159839,49.7323079 C30.8949304,49.7323079 22.9128299,41.1764821 22.1804385,31.4404133 C20.9778316,15.4535191 29.5567989,8.51396493 43.8600537,11.8294013 C63.8404942,16.4607862 64.2347621,22.8258289 63.1908277,30.0165893 C62.7869976,32.7982254 60.0836343,35.7969117 59.9380418,36.6692934 Z" transform="scale(-1 1) rotate(-33 0 174.83)"/><path fill="#FF6969" d="M37.6353073,33.2639312 L31.1394624,33.5 C31.1394624,33.5 32.5756763,40.7866403 35.466418,40.5678211 C37.3935792,40.4219416 38.1165423,37.9873116 37.6353073,33.2639312 Z"/><path fill="#7A5246" d="M32,43.3229815 C30.4313028,43.0008445 27.4047173,40.483351 24.2164184,37.0310871 C19.3340631,31.7445128 14.0341764,25.0462295 12.7097066,26.7900011 C9.43808709,31.0973527 21.2445948,41.9236864 21.8621797,43.3022398 C22.4011164,44.5052372 31.036955,53.3570925 35.3003651,54.5402286 C42.2161242,56.4594165 48.6953017,60.4740558 49.7543038,60.2839105 C56.8351479,59.0125356 57.8287649,49.6692967 61.3457226,46.1070778 L62.4733716,44.0449919 C62.8062964,43.7028877 77.1636633,33.3125398 74.7516226,29.5 C72.339582,25.6874602 61.0381733,39.9415884 58.5847023,39.7004368 C51.9404189,39.1351696 41.3332639,45.2395975 32,43.3229815 Z"/><ellipse cx="47.5" cy="36" fill="#955453" rx="3.5" ry="2" transform="rotate(-18 47.5 36)"/><ellipse cx="25.634" cy="30.5" fill="#955453" rx="2.5" ry="2" transform="rotate(30 25.634 30.5)"/><path fill="#FFC75E" d="M33.3804012,44.2925106 C32.700981,49.7205927 34.051059,53.0253311 37.4306354,54.2067257 C40.8102118,55.3881203 43.7544187,52.5694609 46.2632561,45.7507475 C53.4309402,43.8946895 58.6832572,40.8196624 62.0202071,36.5256663 C65.1605152,39.2264574 68.1263696,41.4443218 69.2518489,43.3421066 C67.0192574,46.2940596 64.3981761,48.7287853 61.3886051,50.6462838 C62.309805,54.289681 62.5203709,58.5685581 62.0203029,63.482915 C48.9383159,61.3418876 32.8953624,67.2396882 27,63.482915 C26.5635177,58.4099682 29.0428829,53.2512923 29.6274773,50.1585469 C25.8199421,50.1585469 22.384633,48.3847046 19.3215503,44.8370201 C20.4026527,42.9562155 22.1754035,40.3473071 24.6398027,37.010295 C26.2132676,40.2314792 29.1268004,42.6588844 33.3804012,44.2925106 Z"/><path fill="#FF6969" d="M11.044 12.881C11.006 13.089 10.826 13.236 10.608 13.355 10.278 13.536 9.837 13.618 9.426 13.607 9.047 13.597 8.686 13.517 8.536 13.271 8.462 13.149 8.493 12.987 8.579 12.779 8.72 12.419 8.95 12.201 9.21 12.083 9.41 11.993 9.625 11.96 9.838 11.973 10.197 11.995 10.549 12.116 10.777 12.341 10.929 12.491 11.052 12.664 11.044 12.881zM30.845 5.442C30.807 5.65 30.627 5.797 30.409 5.917 30.079 6.098 29.638 6.179 29.227 6.169 28.848 6.159 28.487 6.078 28.337 5.833 28.262 5.71 28.293 5.549 28.379 5.34 28.521 4.981 28.751 4.762 29.011 4.645 29.21 4.555 29.426 4.521 29.638 4.534 29.997 4.557 30.35 4.677 30.578 4.902 30.73 5.053 30.853 5.226 30.845 5.442zM11.85 40.412C11.624 41.196 11.016 41.546 10.479 41.538 10.209 41.534 9.961 41.425 9.837 41.214 9.731 41.032 9.751 40.784 9.879 40.474 10.033 40.084 10.278 39.8 10.541 39.607 10.738 39.464 10.943 39.371 11.142 39.344 11.624 39.277 11.978 39.631 11.85 40.412zM16.919 47.514C16.691 48.315 15.962 48.668 15.309 48.677 14.905 48.683 14.521 48.557 14.365 48.266 14.281 48.108 14.301 47.906 14.401 47.661 14.559 47.258 14.848 46.969 15.167 46.772 15.403 46.626 15.656 46.531 15.902 46.494 16.508 46.402 17.058 46.697 16.919 47.514zM66.903 56.556C66.675 57.356 65.946 57.71 65.293 57.719 64.889 57.725 64.505 57.599 64.349 57.308 64.265 57.15 64.284 56.948 64.384 56.703 64.543 56.3 64.832 56.011 65.151 55.813 65.386 55.667 65.64 55.572 65.886 55.535 66.492 55.444 67.041 55.739 66.903 56.556zM76.443 23.627C76.204 24.477 75.272 24.549 74.495 24.275 74.106 24.139 73.751 23.904 73.523 23.607 73.326 23.351 73.249 23.039 73.384 22.703 73.547 22.288 73.9 22.082 74.288 22.01 74.576 21.956 74.886 21.97 75.18 22.046 75.554 22.143 75.907 22.321 76.143 22.6 76.37 22.869 76.51 23.207 76.443 23.627zM85.025 34.812C84.929 35.16 84.68 35.345 84.37 35.419 83.897 35.531 83.295 35.394 82.744 35.135 82.305 34.929 81.901 34.634 81.624 34.294 81.369 33.981 81.229 33.625 81.372 33.269 81.51 32.917 81.832 32.771 82.196 32.729 82.6 32.683 83.058 32.767 83.489 32.936 83.921 33.105 84.329 33.349 84.617 33.669 84.908 33.992 85.1 34.372 85.025 34.812zM13.508.008C13.495 1.319 13.205 2.645 12.609 3.719 12.195 4.466 11.635 5.093 10.921 5.522 11.85 5.761 12.666 6.199 13.369 6.832 13.85 7.265 14.278 7.792 14.651 8.413 14.715 7.691 14.863 7.035 15.097 6.445 15.548 5.305 16.307 4.405 17.371 3.749 16.154 3.229 15.265 2.528 14.593 1.72 14.148 1.187 13.799.608 13.508.008zM4.21 23.344C3.718 24.196 3.302 24.833 2.811 25.317 2.192 25.925 1.457 26.303.313 26.544.875 26.931 1.339 27.491 1.701 28.226 2.047 28.928 2.297 29.799 2.449 30.838 2.792 30.045 3.19 29.378 3.642 28.837 4.201 28.168 4.841 27.688 5.556 27.389 4.949 26.885 4.568 26.396 4.352 25.839 4.091 25.168 4.074 24.391 4.21 23.344zM76.464 6.365C76.015 7.577 75.648 8.462 74.902 9.075 74.49 9.414 73.963 9.675 73.243 9.858 73.834 10.263 74.303 10.868 74.648 11.676 74.953 12.389 75.157 13.27 75.258 14.319 75.642 13.495 76.072 12.802 76.548 12.241 77.149 11.534 77.822 11.03 78.559 10.722 77.763 10.039 77.237 9.286 76.908 8.439 76.66 7.803 76.524 7.115 76.464 6.365zM72.402 44.016C72.125 44.684 71.77 45.252 71.288 45.697 70.872 46.08 70.362 46.374 69.725 46.56 70.193 46.94 70.577 47.474 70.873 48.168 71.104 48.712 71.281 49.359 71.4 50.111 71.659 49.503 71.946 48.984 72.261 48.556 72.725 47.925 73.249 47.48 73.823 47.212 73.286 46.734 72.942 46.248 72.726 45.725 72.511 45.204 72.426 44.645 72.402 44.016z"/></g><path fill="#000" d="M791,310 C798.731986,310 805,316.268014 805,324 C805,329.349779 801.999321,333.998713 797.589223,336.355541 C800.400797,341.19692 800.050741,347.027639 796.409309,353.525666 C796.180661,353.933682 794.296401,354.423136 795.150843,352.285478 C796.770317,348.233849 796.984122,344.713126 795.792257,341.723309 L794.297781,342.556297 L793.481367,339.597823 L791.330686,339.450025 L790.421997,337.009757 L788.390184,337.346005 L787.999393,335.479304 L785.883943,335.726742 L784.990473,333.869148 L782.675444,334.4342 L781.819174,331.812582 L778.462398,333.680068 L778.491936,330.931087 L774.504211,332.438729 L774.450633,330.291533 L769.58322,332.850035 L769.631905,329.956166 L765.413497,333.348452 L764.535355,331.245551 C762.53631,332.494749 760.856912,334.169651 759.497161,336.270254 C759.226561,336.688289 758.744221,335.679038 758.907633,335.181427 C761.994658,325.781026 769.571527,323.706623 777.018273,324.704172 C777.005857,324.471356 777,324.236362 777,324 C777,316.268014 783.268014,310 791,310 Z" transform="translate(175 158)"/><g fill="#000" transform="translate(152 159)"><path d="M788.923 360.309C788.68 361.981 788.618 363.403 788.722 364.607 788.885 366.494 789.427 367.856 790.143 368.802 791.642 370.782 793.933 371.011 795.722 370.488 797.042 370.092 798.911 369.107 800.367 366.9 801.241 365.575 801.97 363.804 802.331 361.447 802.358 361.285 802.249 361.132 802.088 361.105 801.926 361.078 801.773 361.186 801.746 361.348 801.335 363.574 800.597 365.234 799.731 366.468 798.362 368.419 796.669 369.279 795.47 369.604 794.006 370.011 792.167 369.803 790.934 368.199 790.293 367.365 789.816 366.174 789.593 364.511 789.438 363.36 789.387 361.995 789.513 360.374 789.531 360.212 789.414 360.065 789.251 360.047 789.089 360.028 788.942 360.146 788.923 360.309zM775.69 360.869C776.377 361.953 777.371 362.852 778.639 363.616 779.509 364.14 780.509 364.599 781.644 364.999 782.628 365.345 783.899721 365.765989 785.084721 366.018989 785.245721 366.046989 785.354721 366.199989 785.326721 366.360989 785.299721 366.522989 785.145721 366.631989 784.984721 366.603989 783.745721 366.443989 782.411 366.128 781.378 365.831 780.147 365.477 779.062 365.019 778.13 364.47 776.618 363.579 775.507 362.441 774.759 361.116 774.68 360.977 774.677 360.807 774.754 360.666 776.593 357.404 778.145 355.84 779.146 354.456 779.523 353.936 779.82 353.444 780.014 352.886 780.064 352.73 780.232 352.645 780.388 352.696 780.543 352.747 780.629 352.914 780.578 353.07 780.388 353.693 780.087 354.249 779.694 354.837 778.779 356.203 777.342 357.75 775.69 360.869z"/><path d="M782.218 333.743C781.578 334.898 781.21 335.977 780.989 336.973 780.537 339.013 780.723 340.692 780.365 341.956 780.216 342.49 779.78 343.211 779.372 344.129 778.711 345.614 778.103 347.572 778.622 350 779.058 352.034 780.299 354.406 783.005 357.105 783.983 358.073 785.983 359.403 788.274 360.412 790.233 361.275 792.401 361.903 794.312 361.892 796.699 361.877 800.124 362.2 804.091 361.391 806.882 360.821 809.94 359.694 813.094 357.5 813.229 357.407 813.263 357.223 813.171 357.088 813.078 356.952 812.893 356.918 812.758 357.011 809.661 359.102 806.672 360.157 803.95 360.675 800.032 361.42 796.663 361.052 794.312 361.037 792.514 361.027 790.485 360.4 788.65 359.57 786.497 358.595 784.611 357.336 783.696 356.414 781.172 353.891 780.005 351.687 779.586 349.79 779.104 347.604 779.632 345.839 780.203 344.491 780.616 343.516 781.045 342.742 781.19 342.177 781.516 340.887 781.293 339.195 781.686 337.116 781.865 336.167 782.175 335.135 782.742 334.021 782.819 333.877 782.764 333.697 782.619 333.62 782.474 333.543 782.295 333.598 782.218 333.743zM785.177 365.978C784.963 366.66 784.736 367.307 784.529 367.941 784.307 368.62 784.096 369.275 783.902 369.911 783.735 370.457 783.586 370.99 783.446 371.509 783.218 372.354 783.023 373.166 782.866 373.953 782.472 375.924 782.333 377.741 782.694 379.581 782.722 379.743 782.875 379.852 783.036 379.824 783.198 379.797 783.307 379.644 783.279 379.483 783.092 378.144 783.189 376.836 783.443 375.472 783.642 374.407 783.949 373.314 784.286 372.144 784.491 371.432 784.713 370.695 784.923 369.918 785.086 369.313 785.24 368.686 785.384 368.032 785.52 367.417 785.635 366.781 785.753 366.12 785.793 365.961 785.695 365.8 785.536 365.761 785.377 365.722 785.216 365.819 785.177 365.978zM816.553 365.131C816.713 365.85 816.839 366.537 816.967 367.199 817.105 367.918 817.229 368.603 817.34 369.262 817.436 369.832 817.528 370.38 817.603 370.912 817.726 371.783 817.816 372.608 817.863 373.399 817.983 375.414 817.858 377.205 817.567 378.95 817.536 379.111 817.641 379.267 817.802 379.298 817.962 379.329 818.118 379.224 818.149 379.063 818.63 376.883 818.884 374.617 818.689 371.928 818.639 371.243 818.562 370.531 818.44 369.788 818.365 369.331 818.272 368.862 818.16 368.382 818.03 367.823 817.877 367.248 817.696 366.656 817.528 366.107 817.332 365.548 817.123 364.967 817.078 364.809 816.913 364.719 816.756 364.764 816.598 364.809 816.507 364.974 816.553 365.131z"/><path d="M784.632 344.962C784.753 344.6 784.673 344.248 784.502 343.919 784.434 343.788 784.334 343.675 784.225 343.566 784.092 343.434 783.931 343.322 783.754 343.235 783.506 343.113 783.225 343.041 782.94 343.027 782.092 342.985 781.18 343.376 780.854 344.507 780.797 344.66 780.875 344.831 781.028 344.889 781.181 344.946 781.352 344.869 781.41 344.715 781.659 344.187 782.079 343.977 782.502 343.946 782.748 343.927 782.991 343.995 783.214 344.085 783.365 344.146 783.506 344.218 783.625 344.311 783.723 344.387 783.823 344.451 783.886 344.549 783.914 344.591 783.95 344.624 783.97 344.67 783.998 344.739 784.038 344.802 784.044 344.881 784.021 345.043 784.135 345.193 784.297 345.215 784.459 345.238 784.609 345.124 784.632 344.962zM767.632 328.962C767.77 328.376 767.465 327.821 766.963 327.438 766.678 327.22 766.316 327.08 765.94 327.024 765.561 326.967 765.164 327.014 764.804 327.172 764.333 327.381 763.92 327.788 763.686 328.443 763.491 329.016 763.566 329.45 763.788 329.764 764.016 330.086 764.408 330.306 764.888 330.374 765.49 330.46 766.223 330.338 766.768 330.045 767.25 329.786 767.59 329.408 767.632 328.962zM767.044 328.881C767.006 329.089 766.826 329.236 766.608 329.355 766.278 329.536 765.837 329.618 765.426 329.607 765.047 329.597 764.686 329.517 764.536 329.271 764.462 329.149 764.493 328.987 764.579 328.779 764.72 328.419 764.95 328.201 765.21 328.083 765.41 327.993 765.625 327.96 765.838 327.973 766.197 327.995 766.549 328.116 766.777 328.341 766.929 328.491 767.052 328.664 767.044 328.881zM787.432 321.524C787.571 320.938 787.266 320.382 786.764 320 786.478 319.782 786.116 319.641 785.741 319.585 785.362 319.529 784.964 319.575 784.605 319.734 784.134 319.942 783.72 320.35 783.486 321.005 783.291 321.577 783.367 322.011 783.589 322.325 783.816 322.648 784.208 322.867 784.689 322.936 785.29 323.022 786.024 322.9 786.569 322.607 787.051 322.347 787.39 321.97 787.432 321.524zM786.845 321.442C786.807 321.65 786.627 321.797 786.409 321.917 786.079 322.098 785.638 322.179 785.227 322.169 784.848 322.159 784.487 322.078 784.337 321.833 784.262 321.71 784.293 321.549 784.379 321.34 784.521 320.981 784.751 320.762 785.011 320.645 785.21 320.555 785.426 320.521 785.638 320.534 785.997 320.557 786.35 320.677 786.578 320.902 786.73 321.053 786.853 321.226 786.845 321.442zM768.427 356.553C768.716 355.713 768.508 355.122 768.166 354.771 768.037 354.638 767.874 354.548 767.699 354.481 767.505 354.406 767.287 354.379 767.059 354.391 766.699 354.409 766.308 354.544 765.955 354.8 765.553 355.09 765.201 355.542 764.988 356.14 764.775 356.766 764.841 357.264 765.058 357.622 765.245 357.932 765.537 358.156 765.892 358.259 766.791 358.518 768.127 358.042 768.427 356.553zM767.85 356.412C767.624 357.196 767.016 357.546 766.479 357.538 766.209 357.534 765.961 357.425 765.837 357.214 765.731 357.032 765.751 356.784 765.879 356.474 766.033 356.084 766.278 355.8 766.541 355.607 766.738 355.464 766.943 355.371 767.142 355.344 767.624 355.277 767.978 355.631 767.85 356.412zM773.495 363.655C773.887 362.466 773.266 361.788 772.44 361.587 771.899 361.454 771.222 361.57 770.643 361.921 770.151 362.22 769.734 362.701 769.511 363.327 769.314 363.9 769.377 364.364 769.592 364.712 769.824 365.088 770.234 365.351 770.732 365.437 771.779 365.62 773.205 365.072 773.495 363.655zM772.919 363.514C772.691 364.315 771.962 364.668 771.309 364.677 770.905 364.683 770.521 364.557 770.365 364.266 770.281 364.108 770.301 363.906 770.401 363.661 770.559 363.258 770.848 362.969 771.167 362.772 771.403 362.626 771.656 362.531 771.902 362.494 772.508 362.402 773.058 362.697 772.919 363.514zM823.479 372.697C823.871 371.508 823.25 370.83 822.424 370.628 821.883 370.496 821.206 370.612 820.627 370.963 820.135 371.262 819.718 371.742 819.495 372.369 819.298 372.942 819.361 373.405 819.576 373.754 819.808 374.13 820.217 374.392 820.715 374.479 821.763 374.662 823.189 374.114 823.479 372.697zM822.903 372.556C822.675 373.356 821.946 373.71 821.293 373.719 820.889 373.725 820.505 373.599 820.349 373.308 820.265 373.15 820.284 372.948 820.384 372.703 820.543 372.3 820.832 372.011 821.151 371.813 821.386 371.667 821.64 371.572 821.886 371.535 822.492 371.444 823.041 371.739 822.903 372.556zM833.019 339.768C833.308 338.876 832.947 338.116 832.336 337.605 832.082 337.392 831.775 337.235 831.451 337.129 831.015 336.985 830.542 336.948 830.106 337.028 829.391 337.159 828.772 337.597 828.495 338.369 828.069 339.605 829.023 340.68 830.256 341.029 831.429 341.36 832.752 341.047 833.019 339.768zM832.443 339.627C832.204 340.477 831.272 340.549 830.495 340.275 830.106 340.139 829.751 339.904 829.523 339.607 829.326 339.351 829.249 339.039 829.384 338.703 829.547 338.288 829.9 338.082 830.288 338.01 830.576 337.956 830.886 337.97 831.18 338.046 831.554 338.143 831.907 338.321 832.143 338.6 832.37 338.869 832.51 339.207 832.443 339.627zM841.602 350.953C841.843 350.195 841.562 349.461 841.023 348.874 840.711 348.534 840.302 348.255 839.862 348.054 839.281 347.789 838.639 347.675 838.082 347.74 837.344 347.826 836.742 348.213 836.483 348.935 836.285 349.501 836.389 350.064 836.724 350.563 837.088 351.104 837.724 351.577 838.429 351.86 839.789 352.406 841.328 352.244 841.602 350.953zM841.025 350.812C840.929 351.16 840.68 351.345 840.37 351.419 839.897 351.531 839.295 351.394 838.744 351.135 838.305 350.929 837.901 350.634 837.624 350.294 837.369 349.981 837.229 349.625 837.372 349.269 837.51 348.917 837.832 348.771 838.196 348.729 838.6 348.683 839.058 348.767 839.489 348.936 839.921 349.105 840.329 349.349 840.617 349.669 840.908 349.992 841.1 350.372 841.025 350.812zM769.186 313.518C769.132 313.368 768.97 313.286 768.818 313.334 768.665 313.381 768.578 313.54 768.62 313.694 769.007 315.189 768.953 317.001 768.387 318.497 767.822 319.991 766.735 321.17 765.021 321.309 764.806 321.329 764.644 321.515 764.654 321.731 764.663 321.947 764.842 322.118 765.058 322.118 766.56 322.132 767.797 322.585 768.767 323.489 769.649 324.31 770.306 325.497 770.757 327.041 770.829 327.281 771.072 327.425 771.317 327.372 771.561 327.319 771.724 327.088 771.691 326.84 771.485 325.243 771.595 323.902 772.026 322.812 772.511 321.581 773.417 320.682 774.751 320.113 774.938 320.035 775.054 319.847 775.042 319.645 775.029 319.443 774.89 319.271 774.695 319.216 773.094 318.795 772.004 318.069 771.206 317.187 770.224 316.102 769.672 314.791 769.186 313.518zM769.508 316.008C769.495 317.319 769.205 318.645 768.609 319.719 768.195 320.466 767.635 321.093 766.921 321.522 767.85 321.761 768.666 322.199 769.369 322.832 769.85 323.265 770.278 323.792 770.651 324.413 770.715 323.691 770.863 323.035 771.097 322.445 771.548 321.305 772.307 320.405 773.371 319.749 772.154 319.229 771.265 318.528 770.593 317.72 770.148 317.187 769.799 316.608 769.508 316.008zM761.08 337.759C761.103 337.618 761.022 337.48 760.887 337.432 760.752 337.384 760.601 337.439 760.53 337.563 759.612 339.108 759.054 340.135 758.328 340.813 757.561 341.53 756.6 341.824 754.802 341.966 754.604 341.984 754.45 342.144 754.44 342.342 754.429 342.539 754.565 342.715 754.759 342.754 755.726 342.96 756.438 343.584 756.914 344.604 757.437 345.722 757.679 347.292 757.66 349.313 757.66 349.557 757.842 349.762 758.084 349.792 758.325 349.821 758.551 349.666 758.61 349.43 759.044 347.712 759.643 346.395 760.405 345.471 761.039 344.701 761.786 344.211 762.669 344.024 762.855 343.986 763 343.84 763.035 343.654 763.07 343.467 762.989 343.278 762.829 343.175 761.926 342.617 761.391 342.135 761.118 341.521 760.73 340.649 760.84 339.551 761.08 337.759zM760.21 339.344C759.718 340.196 759.302 340.833 758.811 341.317 758.192 341.925 757.457 342.303 756.313 342.544 756.875 342.931 757.339 343.491 757.701 344.226 758.047 344.928 758.297 345.799 758.449 346.838 758.792 346.045 759.19 345.378 759.642 344.837 760.201 344.168 760.841 343.688 761.556 343.389 760.949 342.885 760.568 342.396 760.352 341.839 760.091 341.168 760.074 340.391 760.21 339.344zM833.027 320.809C833.027 320.667 832.927 320.545 832.788 320.518 832.648 320.491 832.509 320.566 832.456 320.698 831.691 322.513 831.419 323.772 830.458 324.522 829.894 324.962 829.087 325.209 827.802 325.311 827.608 325.328 827.457 325.485 827.447 325.68 827.436 325.874 827.57 326.046 827.761 326.085 828.736 326.293 829.425 326.941 829.854 328.005 830.315 329.15 830.477 330.749 830.361 332.802 830.349 333.043 830.52 333.255 830.758 333.295 830.996 333.336 831.227 333.193 831.296 332.961 831.832 331.195 832.504 329.839 833.308 328.884 833.992 328.071 834.771 327.556 835.67 327.367 835.858 327.329 836.004 327.181 836.04 326.992 836.076 326.804 835.994 326.612 835.832 326.509 834.738 325.833 834.061 325.053 833.649 324.13 833.224 323.178 833.065 322.084 833.027 320.809zM832.464 322.365C832.015 323.577 831.648 324.462 830.902 325.075 830.49 325.414 829.963 325.675 829.243 325.858 829.834 326.263 830.303 326.868 830.648 327.676 830.953 328.389 831.157 329.27 831.258 330.319 831.642 329.495 832.072 328.802 832.548 328.241 833.149 327.534 833.822 327.03 834.559 326.722 833.763 326.039 833.237 325.286 832.908 324.439 832.66 323.803 832.524 323.115 832.464 322.365zM829.039 357.741C829.039 357.59 828.924 357.462 828.774 357.446 828.623 357.43 828.484 357.53 828.452 357.678 828.167 358.901 827.833 359.95 827.237 360.715 826.654 361.463 825.806 361.913 824.496 361.979 824.305 361.991 824.151 362.139 824.129 362.329 824.107 362.519 824.225 362.697 824.408 362.752 825.164 362.989 825.708 363.581 826.074 364.497 826.469 365.488 826.65 366.841 826.631 368.556 826.631 368.797 826.811 369 827.05 369.03 827.29 369.06 827.514 368.907 827.573 368.673 827.967 367.139 828.465 365.965 829.064 365.144 829.594 364.419 830.198 363.981 830.914 363.873 831.11 363.845 831.268 363.698 831.311 363.504 831.353 363.311 831.271 363.111 831.104 363.004 830.266 362.487 829.779 361.973 829.498 361.382 829.04 360.419 829.089 359.285 829.039 357.741zM828.402 360.016C828.125 360.684 827.77 361.252 827.288 361.697 826.872 362.08 826.362 362.374 825.725 362.56 826.193 362.94 826.577 363.474 826.873 364.168 827.104 364.712 827.281 365.359 827.4 366.111 827.659 365.503 827.946 364.984 828.261 364.556 828.725 363.925 829.249 363.48 829.823 363.212 829.286 362.734 828.942 362.248 828.726 361.725 828.511 361.204 828.426 360.645 828.402 360.016zM801.764 349.372C801.869 349.085 801.931 348.817 801.96 348.557 801.995 348.237 801.962 347.942 801.897 347.674 801.836 347.417 801.73 347.188 801.598 346.99 801.374 346.653 801.07 346.401 800.729 346.245 799.765 345.804 798.457 346.066 797.629 347.34 797.532 347.471 797.56 347.657 797.692 347.755 797.823 347.852 798.009 347.824 798.106 347.692 798.778 346.885 799.66 346.729 800.298 347.09 800.484 347.196 800.638 347.354 800.767 347.546 800.849 347.668 800.924 347.802 800.981 347.955 801.05 348.139 801.109 348.338 801.139 348.565 801.167 348.779 801.196 349.002 801.182 349.254 801.15 349.414 801.253 349.571 801.414 349.604 801.574 349.636 801.731 349.533 801.764 349.372zM793.768 349.283C793.753 349.127 793.619 349.011 793.462 349.016 793.462 349.016 791.837 349.001 790.21 349.012 788.584 349.024 786.96 349.062 786.96 349.062 786.817 349.067 786.684 349.135 786.596 349.246 786.507 349.358 786.472 349.503 786.499 349.643 786.499 349.643 786.641 350.431 786.951 351.484 787.326 352.754 787.947 354.403 788.781 355.55 789.487 356.521 790.358 357.133 791.337 357.046 792.331 356.956 793.069 356.38 793.504 355.265 793.993 354.012 794.093 352.019 793.768 349.283zM793.201 349.632C792.667 349.675 791.455 349.77 790.241 349.85 789.221 349.917 788.202 349.973 787.585 350.005 787.674 350.365 787.808 350.874 787.984 351.45 788.257 352.344 788.627 353.401 789.111 354.304 789.445 354.925 789.824 355.475 790.27 355.826 790.574 356.064 790.904 356.211 791.272 356.188 792.165 356.134 792.716 355.455 793.017 354.232 793.291 353.118 793.351 351.585 793.201 349.632zM817.899 353.143C816.168 354.869 814.714 356.378 813.536 357.667 812.274 359.048 811.331 360.176 810.708 361.055 810.615 361.189 810.43 361.223 810.295 361.13 810.16 361.037 810.126 360.852 810.219 360.718 810.83 359.808 811.759 358.634 813.008 357.197 814.22 355.804 815.734 354.163 817.55 352.272 817.7 352.12 817.938 352.1 818.111 352.225 820.02 353.58 821.599 354.836 822.84 356.004 824.037 357.131 824.922 358.178 825.512 359.131 825.612 359.292 825.611 359.496 825.51 359.656 824.832 360.706 823.96 361.762 822.867 362.797 821.557 364.035 819.560028 365.437284 817.648028 366.646284 817.512028 366.737284 817.328028 366.701284 817.237028 366.565284 817.146028 366.429284 817.182028 366.244284 817.318028 366.153284 819.121028 364.877284 820.998 363.405 822.232 362.149 823.142 361.223 823.904 360.309 824.502 359.392 823.955 358.567 823.174 357.676 822.17 356.708 821.032 355.612 819.612 354.421 817.899 353.143zM780.415 352.597C778.902 351.431 777.534 349.768 776.231 348.134 775.421 347.117 774.636 346.111 773.874 345.226 773.267 344.52 772.671 343.893 772.088 343.396 770.989 342.457 769.911 341.986 768.881 342.188 768.051 342.352 767.62 342.931 767.568 343.842 767.514 344.798 767.931 346.199 768.682 347.766 770.438 351.428 773.974 356.07 776.719 358.014 776.852 358.11 777.037 358.08 777.134 357.948 777.23 357.815 777.2 357.629 777.067 357.533 774.824 355.868 772.073 352.271 770.295 349.018 769.65 347.837 769.133 346.703 768.822 345.724 768.571 344.937 768.45 344.261 768.528 343.758 768.58 343.427 768.739 343.199 769.063 343.14 769.841 342.995 770.613 343.444 771.44 344.153 771.989 344.624 772.549 345.216 773.132 345.874 773.9 346.742 774.7 347.726 775.541 348.705 776.941 350.336 778.452 351.954 780.065 353.076 780.197 353.173 780.383 353.144 780.479 353.012 780.576 352.88 780.547 352.694 780.415 352.597z"/><path d="M822.819,356.874 C824.305,355.667 825.613,354.56 826.719,353.523 C828.255,352.084 829.42,350.802 830.231,349.701 C830.925,348.761 831.358,347.937 831.556,347.247 C831.81,346.366 831.694,345.665 831.277,345.14 C830.48,344.139 829.339,344.125 827.933,344.885 C825.525,346.186 822.197,349.848 818.585,352.794 C818.457,352.896 818.436,353.083 818.538,353.211 C818.64,353.339 818.827,353.361 818.955,353.259 C821.995,350.903 824.849,348.051 827.112,346.447 C827.962,345.845 828.716,345.422 829.362,345.307 C829.831,345.223 830.226,345.336 830.526,345.727 C830.766,346.039 830.769,346.455 830.614,346.97 C830.433,347.574 830.029,348.282 829.426,349.113 C828.648,350.186 827.535,351.438 826.102,352.891 C825.048,353.96 823.835,355.146 822.432,356.424 C822.308,356.531 822.294,356.719 822.4,356.843 C822.507,356.967 822.695,356.981 822.819,356.874 Z"/></g></g></svg>