<svg xmlns="http://www.w3.org/2000/svg" width="64" height="64"><g transform="translate(3.233 -1013.362)"><g transform="translate(-676.48 -205.377) scale(.85714)"><g transform="scale(1 -1) rotate(75 2673.928 -168.492)"><rect width="31" height="14" x="945" y="1287.362" fill="#3b9c00" rx="1" ry="1"/><path fill="#cbe2a9" d="m 964.00006,1294.5356 c 0,1.932 -1.57426,3.5003 -3.51029,3.5003 -1.93657,0 -3.48985,-1.5683 -3.48985,-3.5003 0,-1.9311 1.55328,-3.4995 3.48985,-3.4995 1.93603,0 3.51029,1.5684 3.51029,3.4995 l 0,0 z"/><path fill="#015834" d="m 960.49599,1292.2861 c -0.13807,0 -0.24825,0.1158 -0.24609,0.2539 l 0,0.2187 c -0.4901,0.1031 -0.87402,0.5001 -0.87402,0.999 0,0.5814 0.52044,1.0274 1.12402,1.0274 0.36504,0 0.62402,0.2478 0.62402,0.5273 0,0.2794 -0.259,0.5264 -0.62402,0.5264 -0.36503,0 -0.62402,-0.247 -0.62402,-0.5264 0.005,-0.3381 -0.50478,-0.3381 -0.5,0 0,0.4919 0.39159,0.8424 0.87402,0.9473 l 0,0.2734 c -0.005,0.3381 0.50478,0.3381 0.5,0 l 0,-0.2744 c 0.482,-0.1052 0.87401,-0.4538 0.87401,-0.9453 0,-0.5273 -0.37402,-1.0264 -1.08886,-1.0264 -0.008,-10e-4 -0.0169,0 -0.0254,0 -0.003,0 -0.007,0 -0.01,0 -0.36502,0 -0.62402,-0.2479 -0.62402,-0.5273 0,-0.2758 0.25309,-0.5179 0.61035,-0.5244 0.009,10e-4 0.0189,10e-4 0.0283,10e-4 0.35662,0.01 0.60937,0.248 0.60937,0.5234 -0.005,0.3381 0.50478,0.3381 0.49999,0 0,-0.4989 -0.38391,-0.896 -0.87401,-0.999 l 0,-0.2187 c 0.002,-0.1412 -0.11278,-0.2562 -0.25391,-0.2539 z" color="#000" font-family="sans-serif" font-weight="400" overflow="visible" style="line-height:normal;text-indent:0;text-align:start;text-decoration-line:none;text-transform:none;block-progression:tb"/><path fill="#cbe2a9" d="m 953.00013,1294.5358 c 0,0.8281 -0.6747,1.5002 -1.50445,1.5002 -0.82998,0 -1.49569,-0.6721 -1.49569,-1.5002 0,-0.8276 0.66571,-1.4998 1.49569,-1.4998 0.82975,0 1.50445,0.6722 1.50445,1.4998 l 0,0 z"/><path fill="#015834" d="m 951.99999,1294.536 c 0,0.2761 -0.22489,0.5001 -0.50146,0.5001 -0.27665,0 -0.49854,-0.224 -0.49854,-0.5001 0,-0.2758 0.22189,-0.4999 0.49854,-0.4999 0.27657,0 0.50146,0.2241 0.50146,0.4999 l 0,0 z"/><path fill="#cbe2a9" d="m 970.99999,1294.5358 c 0,0.8281 -0.6747,1.5002 -1.50445,1.5002 -0.82998,0 -1.49569,-0.6721 -1.49569,-1.5002 0,-0.8276 0.66571,-1.4998 1.49569,-1.4998 0.82975,0 1.50445,0.6722 1.50445,1.4998 l 0,0 z"/><path fill="#015834" d="m 969.99985,1294.536 c 0,0.2761 -0.22489,0.5001 -0.50146,0.5001 -0.27665,0 -0.49854,-0.224 -0.49854,-0.5001 0,-0.2758 0.22189,-0.4999 0.49854,-0.4999 0.27657,0 0.50146,0.2241 0.50146,0.4999 l 0,0 z"/><path fill="#8bbe3e" d="m 947.5,1288.3622 a 1.5,1.5 0 0 1 -1.5,1.5 l 0,9 a 1.5,1.5 0 0 1 1.5,1.5 l 26,0 a 1.5,1.5 0 0 1 1.5,-1.5 l 0,-9 a 1.5,1.5 0 0 1 -1.5,-1.5 l -26,0 z"/><g transform="translate(1102.857 -314.053) scale(1.14286)"><path fill="#cbe2a9" d="m -121.49994,1407.3617 c 0,1.932 -1.57426,3.5003 -3.51029,3.5003 -1.93657,0 -3.48985,-1.5683 -3.48985,-3.5003 0,-1.9311 1.55328,-3.4995 3.48985,-3.4995 1.93603,0 3.51029,1.5684 3.51029,3.4995 l 0,0 z"/><path fill="#015834" style="line-height:normal;text-indent:0;text-align:start;text-decoration-line:none;text-transform:none;block-progression:tb" d="m -125.00401,1405.1122 c -0.13807,0 -0.24825,0.1158 -0.24609,0.2539 l 0,0.2187 c -0.4901,0.1031 -0.87402,0.5001 -0.87402,0.999 0,0.5814 0.52044,1.0274 1.12402,1.0274 0.36504,0 0.62402,0.2478 0.62402,0.5273 0,0.2794 -0.259,0.5264 -0.62402,0.5264 -0.36503,0 -0.62402,-0.247 -0.62402,-0.5264 0.005,-0.3381 -0.50478,-0.3381 -0.5,0 0,0.4919 0.39159,0.8424 0.87402,0.9473 l 0,0.2734 c -0.005,0.3381 0.50478,0.3381 0.5,0 l 0,-0.2744 c 0.482,-0.1052 0.87401,-0.4538 0.87401,-0.9453 0,-0.5273 -0.37402,-1.0264 -1.08886,-1.0264 -0.008,-10e-4 -0.0169,0 -0.0254,0 -0.003,0 -0.007,0 -0.01,0 -0.36502,0 -0.62402,-0.2479 -0.62402,-0.5273 0,-0.2758 0.25309,-0.5179 0.61035,-0.5244 0.009,10e-4 0.0189,10e-4 0.0283,10e-4 0.35662,0.01 0.60937,0.248 0.60937,0.5234 -0.005,0.3381 0.50478,0.3381 0.49999,0 0,-0.4989 -0.38391,-0.896 -0.87401,-0.999 l 0,-0.2187 c 0.002,-0.1412 -0.11278,-0.2562 -0.25391,-0.2539 z" color="#000" font-family="sans-serif" font-weight="400" overflow="visible"/></g><g transform="translate(860.5 -88.5)"><path fill="#cbe2a9" d="m 92.000144,1382.862 c 0,0.8281 -0.674701,1.5002 -1.504453,1.5002 -0.829983,0 -1.495691,-0.6721 -1.495691,-1.5002 0,-0.8276 0.665708,-1.4998 1.495691,-1.4998 0.829752,0 1.504453,0.6722 1.504453,1.4998 l 0,0 z"/><path fill="#015834" d="m 91,1382.8622 c 0,0.2761 -0.22489,0.5001 -0.501461,0.5001 -0.276647,0 -0.498539,-0.224 -0.498539,-0.5001 0,-0.2758 0.221892,-0.4999 0.498539,-0.4999 0.276571,0 0.501461,0.2241 0.501461,0.4999 l 0,0 z"/></g><g transform="translate(878.5 -88.5)"><path fill="#cbe2a9" d="m 92.000144,1382.862 c 0,0.8281 -0.674701,1.5002 -1.504453,1.5002 -0.829983,0 -1.495691,-0.6721 -1.495691,-1.5002 0,-0.8276 0.665708,-1.4998 1.495691,-1.4998 0.829752,0 1.504453,0.6722 1.504453,1.4998 l 0,0 z"/><path fill="#015834" d="m 91,1382.8622 c 0,0.2761 -0.22489,0.5001 -0.501461,0.5001 -0.276647,0 -0.498539,-0.224 -0.498539,-0.5001 0,-0.2758 0.221892,-0.4999 0.498539,-0.4999 0.276571,0 0.501461,0.2241 0.501461,0.4999 l 0,0 z"/></g></g><g transform="rotate(-90 958.5 1442.862)"><rect width="31" height="14" x="945" y="1287.362" fill="#3b9c00" rx="1" ry="1"/><path fill="#cbe2a9" d="m 964.00006,1294.5356 c 0,1.932 -1.57426,3.5003 -3.51029,3.5003 -1.93657,0 -3.48985,-1.5683 -3.48985,-3.5003 0,-1.9311 1.55328,-3.4995 3.48985,-3.4995 1.93603,0 3.51029,1.5684 3.51029,3.4995 l 0,0 z"/><path fill="#015834" style="line-height:normal;text-indent:0;text-align:start;text-decoration-line:none;text-transform:none;block-progression:tb" d="m 960.49599,1292.2861 c -0.13807,0 -0.24825,0.1158 -0.24609,0.2539 l 0,0.2187 c -0.4901,0.1031 -0.87402,0.5001 -0.87402,0.999 0,0.5814 0.52044,1.0274 1.12402,1.0274 0.36504,0 0.62402,0.2478 0.62402,0.5273 0,0.2794 -0.259,0.5264 -0.62402,0.5264 -0.36503,0 -0.62402,-0.247 -0.62402,-0.5264 0.005,-0.3381 -0.50478,-0.3381 -0.5,0 0,0.4919 0.39159,0.8424 0.87402,0.9473 l 0,0.2734 c -0.005,0.3381 0.50478,0.3381 0.5,0 l 0,-0.2744 c 0.482,-0.1052 0.87401,-0.4538 0.87401,-0.9453 0,-0.5273 -0.37402,-1.0264 -1.08886,-1.0264 -0.008,-10e-4 -0.0169,0 -0.0254,0 -0.003,0 -0.007,0 -0.01,0 -0.36502,0 -0.62402,-0.2479 -0.62402,-0.5273 0,-0.2758 0.25309,-0.5179 0.61035,-0.5244 0.009,10e-4 0.0189,10e-4 0.0283,10e-4 0.35662,0.01 0.60937,0.248 0.60937,0.5234 -0.005,0.3381 0.50478,0.3381 0.49999,0 0,-0.4989 -0.38391,-0.896 -0.87401,-0.999 l 0,-0.2187 c 0.002,-0.1412 -0.11278,-0.2562 -0.25391,-0.2539 z" color="#000" font-family="sans-serif" font-weight="400" overflow="visible"/><path fill="#cbe2a9" d="m 953.00013,1294.5358 c 0,0.8281 -0.6747,1.5002 -1.50445,1.5002 -0.82998,0 -1.49569,-0.6721 -1.49569,-1.5002 0,-0.8276 0.66571,-1.4998 1.49569,-1.4998 0.82975,0 1.50445,0.6722 1.50445,1.4998 l 0,0 z"/><path fill="#015834" d="m 951.99999,1294.536 c 0,0.2761 -0.22489,0.5001 -0.50146,0.5001 -0.27665,0 -0.49854,-0.224 -0.49854,-0.5001 0,-0.2758 0.22189,-0.4999 0.49854,-0.4999 0.27657,0 0.50146,0.2241 0.50146,0.4999 l 0,0 z"/><path fill="#cbe2a9" d="m 970.99999,1294.5358 c 0,0.8281 -0.6747,1.5002 -1.50445,1.5002 -0.82998,0 -1.49569,-0.6721 -1.49569,-1.5002 0,-0.8276 0.66571,-1.4998 1.49569,-1.4998 0.82975,0 1.50445,0.6722 1.50445,1.4998 l 0,0 z"/><path fill="#015834" d="m 969.99985,1294.536 c 0,0.2761 -0.22489,0.5001 -0.50146,0.5001 -0.27665,0 -0.49854,-0.224 -0.49854,-0.5001 0,-0.2758 0.22189,-0.4999 0.49854,-0.4999 0.27657,0 0.50146,0.2241 0.50146,0.4999 l 0,0 z"/><path fill="#8bbe3e" d="m 947.5,1288.3622 a 1.5,1.5 0 0 1 -1.5,1.5 l 0,9 a 1.5,1.5 0 0 1 1.5,1.5 l 26,0 a 1.5,1.5 0 0 1 1.5,-1.5 l 0,-9 a 1.5,1.5 0 0 1 -1.5,-1.5 l -26,0 z"/><g transform="translate(1102.857 -314.053) scale(1.14286)"><path fill="#cbe2a9" d="m -121.49994,1407.3617 c 0,1.932 -1.57426,3.5003 -3.51029,3.5003 -1.93657,0 -3.48985,-1.5683 -3.48985,-3.5003 0,-1.9311 1.55328,-3.4995 3.48985,-3.4995 1.93603,0 3.51029,1.5684 3.51029,3.4995 l 0,0 z"/><path fill="#015834" d="m -125.00401,1405.1122 c -0.13807,0 -0.24825,0.1158 -0.24609,0.2539 l 0,0.2187 c -0.4901,0.1031 -0.87402,0.5001 -0.87402,0.999 0,0.5814 0.52044,1.0274 1.12402,1.0274 0.36504,0 0.62402,0.2478 0.62402,0.5273 0,0.2794 -0.259,0.5264 -0.62402,0.5264 -0.36503,0 -0.62402,-0.247 -0.62402,-0.5264 0.005,-0.3381 -0.50478,-0.3381 -0.5,0 0,0.4919 0.39159,0.8424 0.87402,0.9473 l 0,0.2734 c -0.005,0.3381 0.50478,0.3381 0.5,0 l 0,-0.2744 c 0.482,-0.1052 0.87401,-0.4538 0.87401,-0.9453 0,-0.5273 -0.37402,-1.0264 -1.08886,-1.0264 -0.008,-10e-4 -0.0169,0 -0.0254,0 -0.003,0 -0.007,0 -0.01,0 -0.36502,0 -0.62402,-0.2479 -0.62402,-0.5273 0,-0.2758 0.25309,-0.5179 0.61035,-0.5244 0.009,10e-4 0.0189,10e-4 0.0283,10e-4 0.35662,0.01 0.60937,0.248 0.60937,0.5234 -0.005,0.3381 0.50478,0.3381 0.49999,0 0,-0.4989 -0.38391,-0.896 -0.87401,-0.999 l 0,-0.2187 c 0.002,-0.1412 -0.11278,-0.2562 -0.25391,-0.2539 z" color="#000" font-family="sans-serif" font-weight="400" overflow="visible" style="line-height:normal;text-indent:0;text-align:start;text-decoration-line:none;text-transform:none;block-progression:tb"/></g><g transform="translate(860.5 -88.5)"><path fill="#cbe2a9" d="m 92.000144,1382.862 c 0,0.8281 -0.674701,1.5002 -1.504453,1.5002 -0.829983,0 -1.495691,-0.6721 -1.495691,-1.5002 0,-0.8276 0.665708,-1.4998 1.495691,-1.4998 0.829752,0 1.504453,0.6722 1.504453,1.4998 l 0,0 z"/><path fill="#015834" d="m 91,1382.8622 c 0,0.2761 -0.22489,0.5001 -0.501461,0.5001 -0.276647,0 -0.498539,-0.224 -0.498539,-0.5001 0,-0.2758 0.221892,-0.4999 0.498539,-0.4999 0.276571,0 0.501461,0.2241 0.501461,0.4999 l 0,0 z"/></g><g transform="translate(878.5 -88.5)"><path fill="#cbe2a9" d="m 92.000144,1382.862 c 0,0.8281 -0.674701,1.5002 -1.504453,1.5002 -0.829983,0 -1.495691,-0.6721 -1.495691,-1.5002 0,-0.8276 0.665708,-1.4998 1.495691,-1.4998 0.829752,0 1.504453,0.6722 1.504453,1.4998 l 0,0 z"/><path fill="#015834" d="m 91,1382.8622 c 0,0.2761 -0.22489,0.5001 -0.501461,0.5001 -0.276647,0 -0.498539,-0.224 -0.498539,-0.5001 0,-0.2758 0.221892,-0.4999 0.498539,-0.4999 0.276571,0 0.501461,0.2241 0.501461,0.4999 l 0,0 z"/></g></g><g transform="rotate(-105 939.514 1430.069)"><rect width="31" height="14" x="945" y="1287.362" fill="#3b9c00" rx="1" ry="1"/><path fill="#cbe2a9" d="m 964.00006,1294.5356 c 0,1.932 -1.57426,3.5003 -3.51029,3.5003 -1.93657,0 -3.48985,-1.5683 -3.48985,-3.5003 0,-1.9311 1.55328,-3.4995 3.48985,-3.4995 1.93603,0 3.51029,1.5684 3.51029,3.4995 l 0,0 z"/><path fill="#015834" style="line-height:normal;text-indent:0;text-align:start;text-decoration-line:none;text-transform:none;block-progression:tb" d="m 960.49599,1292.2861 c -0.13807,0 -0.24825,0.1158 -0.24609,0.2539 l 0,0.2187 c -0.4901,0.1031 -0.87402,0.5001 -0.87402,0.999 0,0.5814 0.52044,1.0274 1.12402,1.0274 0.36504,0 0.62402,0.2478 0.62402,0.5273 0,0.2794 -0.259,0.5264 -0.62402,0.5264 -0.36503,0 -0.62402,-0.247 -0.62402,-0.5264 0.005,-0.3381 -0.50478,-0.3381 -0.5,0 0,0.4919 0.39159,0.8424 0.87402,0.9473 l 0,0.2734 c -0.005,0.3381 0.50478,0.3381 0.5,0 l 0,-0.2744 c 0.482,-0.1052 0.87401,-0.4538 0.87401,-0.9453 0,-0.5273 -0.37402,-1.0264 -1.08886,-1.0264 -0.008,-10e-4 -0.0169,0 -0.0254,0 -0.003,0 -0.007,0 -0.01,0 -0.36502,0 -0.62402,-0.2479 -0.62402,-0.5273 0,-0.2758 0.25309,-0.5179 0.61035,-0.5244 0.009,10e-4 0.0189,10e-4 0.0283,10e-4 0.35662,0.01 0.60937,0.248 0.60937,0.5234 -0.005,0.3381 0.50478,0.3381 0.49999,0 0,-0.4989 -0.38391,-0.896 -0.87401,-0.999 l 0,-0.2187 c 0.002,-0.1412 -0.11278,-0.2562 -0.25391,-0.2539 z" color="#000" font-family="sans-serif" font-weight="400" overflow="visible"/><path fill="#cbe2a9" d="m 953.00013,1294.5358 c 0,0.8281 -0.6747,1.5002 -1.50445,1.5002 -0.82998,0 -1.49569,-0.6721 -1.49569,-1.5002 0,-0.8276 0.66571,-1.4998 1.49569,-1.4998 0.82975,0 1.50445,0.6722 1.50445,1.4998 l 0,0 z"/><path fill="#015834" d="m 951.99999,1294.536 c 0,0.2761 -0.22489,0.5001 -0.50146,0.5001 -0.27665,0 -0.49854,-0.224 -0.49854,-0.5001 0,-0.2758 0.22189,-0.4999 0.49854,-0.4999 0.27657,0 0.50146,0.2241 0.50146,0.4999 l 0,0 z"/><path fill="#cbe2a9" d="m 970.99999,1294.5358 c 0,0.8281 -0.6747,1.5002 -1.50445,1.5002 -0.82998,0 -1.49569,-0.6721 -1.49569,-1.5002 0,-0.8276 0.66571,-1.4998 1.49569,-1.4998 0.82975,0 1.50445,0.6722 1.50445,1.4998 l 0,0 z"/><path fill="#015834" d="m 969.99985,1294.536 c 0,0.2761 -0.22489,0.5001 -0.50146,0.5001 -0.27665,0 -0.49854,-0.224 -0.49854,-0.5001 0,-0.2758 0.22189,-0.4999 0.49854,-0.4999 0.27657,0 0.50146,0.2241 0.50146,0.4999 l 0,0 z"/><path fill="#8bbe3e" d="m 947.5,1288.3622 a 1.5,1.5 0 0 1 -1.5,1.5 l 0,9 a 1.5,1.5 0 0 1 1.5,1.5 l 26,0 a 1.5,1.5 0 0 1 1.5,-1.5 l 0,-9 a 1.5,1.5 0 0 1 -1.5,-1.5 l -26,0 z"/><g transform="translate(1102.857 -314.053) scale(1.14286)"><path fill="#cbe2a9" d="m -121.49994,1407.3617 c 0,1.932 -1.57426,3.5003 -3.51029,3.5003 -1.93657,0 -3.48985,-1.5683 -3.48985,-3.5003 0,-1.9311 1.55328,-3.4995 3.48985,-3.4995 1.93603,0 3.51029,1.5684 3.51029,3.4995 l 0,0 z"/><path fill="#015834" d="m -125.00401,1405.1122 c -0.13807,0 -0.24825,0.1158 -0.24609,0.2539 l 0,0.2187 c -0.4901,0.1031 -0.87402,0.5001 -0.87402,0.999 0,0.5814 0.52044,1.0274 1.12402,1.0274 0.36504,0 0.62402,0.2478 0.62402,0.5273 0,0.2794 -0.259,0.5264 -0.62402,0.5264 -0.36503,0 -0.62402,-0.247 -0.62402,-0.5264 0.005,-0.3381 -0.50478,-0.3381 -0.5,0 0,0.4919 0.39159,0.8424 0.87402,0.9473 l 0,0.2734 c -0.005,0.3381 0.50478,0.3381 0.5,0 l 0,-0.2744 c 0.482,-0.1052 0.87401,-0.4538 0.87401,-0.9453 0,-0.5273 -0.37402,-1.0264 -1.08886,-1.0264 -0.008,-10e-4 -0.0169,0 -0.0254,0 -0.003,0 -0.007,0 -0.01,0 -0.36502,0 -0.62402,-0.2479 -0.62402,-0.5273 0,-0.2758 0.25309,-0.5179 0.61035,-0.5244 0.009,10e-4 0.0189,10e-4 0.0283,10e-4 0.35662,0.01 0.60937,0.248 0.60937,0.5234 -0.005,0.3381 0.50478,0.3381 0.49999,0 0,-0.4989 -0.38391,-0.896 -0.87401,-0.999 l 0,-0.2187 c 0.002,-0.1412 -0.11278,-0.2562 -0.25391,-0.2539 z" color="#000" font-family="sans-serif" font-weight="400" overflow="visible" style="line-height:normal;text-indent:0;text-align:start;text-decoration-line:none;text-transform:none;block-progression:tb"/></g><g transform="translate(860.5 -88.5)"><path fill="#cbe2a9" d="m 92.000144,1382.862 c 0,0.8281 -0.674701,1.5002 -1.504453,1.5002 -0.829983,0 -1.495691,-0.6721 -1.495691,-1.5002 0,-0.8276 0.665708,-1.4998 1.495691,-1.4998 0.829752,0 1.504453,0.6722 1.504453,1.4998 l 0,0 z"/><path fill="#015834" d="m 91,1382.8622 c 0,0.2761 -0.22489,0.5001 -0.501461,0.5001 -0.276647,0 -0.498539,-0.224 -0.498539,-0.5001 0,-0.2758 0.221892,-0.4999 0.498539,-0.4999 0.276571,0 0.501461,0.2241 0.501461,0.4999 l 0,0 z"/></g><g transform="translate(878.5 -88.5)"><path fill="#cbe2a9" d="m 92.000144,1382.862 c 0,0.8281 -0.674701,1.5002 -1.504453,1.5002 -0.829983,0 -1.495691,-0.6721 -1.495691,-1.5002 0,-0.8276 0.665708,-1.4998 1.495691,-1.4998 0.829752,0 1.504453,0.6722 1.504453,1.4998 l 0,0 z"/><path fill="#015834" d="m 91,1382.8622 c 0,0.2761 -0.22489,0.5001 -0.501461,0.5001 -0.276647,0 -0.498539,-0.224 -0.498539,-0.5001 0,-0.2758 0.221892,-0.4999 0.498539,-0.4999 0.276571,0 0.501461,0.2241 0.501461,0.4999 l 0,0 z"/></g></g><rect width="32.778" height="21.344" x="793.611" y="1446.018" fill="#4b414c" rx="2.143" ry="2.143"/><path fill="#1f2128" d="m 793.6114,1463.1342 0,0.6152 0,1.4023 0,0.023 0,0 c 0.013,1.2131 0.9908,2.1875 2.207,2.1875 l 28.3594,0 c 1.2162,0 2.1942,-0.9744 2.207,-2.1875 l 0,0 0,-0.023 0,-1.4023 0,-0.6152 -2.209,0 -28.3594,0 z" opacity=".15"/><path fill="#ec4a2c" fill-rule="evenodd" d="m 826.3889,1455.6411 -12.1964,0 -1.5245,1.5245 0,1.5246 0,1.5245 1.5245,1.5246 12.1964,0 z"/><circle cx="815.336" cy="1458.69" r="1.143" fill="#ffcd00"/><path fill="#85797d" style="line-height:normal;text-indent:0;text-align:start;text-decoration-line:none;text-transform:none;block-progression:tb" d="m 796.1668,1447.3211 c -0.7766,0 -1.4173,0.6408 -1.4173,1.4174 l 0,3.6967 a 0.50004999,0.50004999 0 1 0 0.9999,0 l 0,-3.6967 c 0,-0.2399 0.1775,-0.4172 0.4174,-0.4172 l 20.6904,0 a 0.5001,0.5001 0 0 0 0,-1.0002 l -20.6904,0 z" color="#000" font-family="sans-serif" font-weight="400" overflow="visible"/></g><path fill="#e9eded" style="line-height:normal;text-indent:0;text-align:start;text-decoration-line:none;text-decoration-style:solid;text-decoration-color:#000;text-transform:none;block-progression:tb;isolation:auto;mix-blend-mode:normal" d="m 12.664062,5 c -1.011936,0 -1.857421,0.8455219 -1.857421,1.8574219 l 0,1.3867187 -7.666016,2.0527344 c -0.9760484,0.2615 -1.5739995,1.299391 -1.3125,2.275391 l 2.8203125,10.527343 c -1.0452824,0.4204 -1.8886719,1.25706 -1.8886719,2.44336 l 0,12.833984 0,0.525391 0,1.203125 0,0.01953 0,0.03906 C 2.7597656,41.717762 4.0419698,43 5.5957031,43 l 24.4218749,0 c 1.553733,0 2.835938,-1.282238 2.835938,-2.835938 l 0,-2.984374 0,-5.226563 0,-6.410156 c 0,-1.051 -0.681487,-1.811128 -1.541016,-2.298828 l 2.859375,-10.671875 c 0.261501,-0.976 -0.336452,-2.013891 -1.3125,-2.275391 l -0.002,0 -8.050781,-2.15625 0,-1.2832031 C 24.806641,5.8455219 23.961156,5 22.949219,5 L 12.664062,5 Z m 0,1 10.285157,0 c 0.474865,0 0.857422,0.3825552 0.857422,0.8574219 l 0,2.0507812 8.792968,2.3554689 c 0.458685,0.122904 0.728374,0.590142 0.605469,1.048828 l -3.05664,11.40625 c 0.95479,0.06791 1.705078,0.85155 1.705078,1.824219 l 0,6.410156 0,5.226563 0,2.984374 C 31.853516,41.181604 31.035118,42 30.017578,42 L 5.5957031,42 C 4.5781628,42 3.7597656,41.181604 3.7597656,40.164062 l 0,-0.03906 0,-0.01953 0,-1.203125 0,-0.525391 0,-12.833984 c 0,-1.017541 0.8183972,-1.837891 1.8359375,-1.837891 l 0.2519531,0 L 2.7949219,12.3125 C 2.6720173,11.853814 2.9417058,11.386576 3.4003906,11.263672 l 8.4062504,-2.2519532 0,-2.1542969 C 11.806641,6.3825552 12.189198,6 12.664062,6 Z" color="#000" font-family="sans-serif" font-weight="400" overflow="visible" transform="translate(0 1010.362)"/></g></svg>